<svg xmlns="http://www.w3.org/2000/svg" width="65" height="65" viewBox="0 0 65 65"><defs><style>.a{fill:#f3f3f3;}.b{fill:#2e1963;}</style></defs><g transform="translate(-0.12 0.394)"><rect class="a" width="65" height="65" rx="32.5" transform="translate(0.12 -0.394)"/><path class="b" d="M41.343,20.953A20.39,20.39,0,1,1,20.953.563,20.39,20.39,0,0,1,41.343,20.953ZM29.7,18.048c.406-2.713-1.66-4.172-4.485-5.145l.916-3.675L23.891,8.67,23,12.249c-.588-.147-1.192-.285-1.793-.422l.9-3.6-2.236-.558-.917,3.674c-.487-.111-.965-.221-1.429-.336l0-.012-3.086-.77-.6,2.389s1.66.38,1.625.4a1.19,1.19,0,0,1,1.043,1.3l-1.044,4.187a1.855,1.855,0,0,1,.233.075l-.236-.059L14,24.387a.815.815,0,0,1-1.025.531c.022.032-1.626-.406-1.626-.406l-1.111,2.561,2.912.726c.542.136,1.073.278,1.6.412l-.926,3.717,2.235.558.917-3.678q.889.241,1.783.463l-.914,3.661,2.237.558L21,29.778c3.815.722,6.684.431,7.892-3.02.973-2.778-.048-4.381-2.056-5.426A3.568,3.568,0,0,0,29.7,18.048Zm-5.112,7.168c-.691,2.778-5.37,1.276-6.886.9l1.229-4.925c1.517.378,6.38,1.128,5.658,4.025Zm.692-7.208c-.631,2.527-4.525,1.243-5.788.928L20.6,14.47C21.866,14.784,25.934,15.372,25.277,18.008Z" transform="translate(10.891 10.423)"/></g></svg>