<svg xmlns="http://www.w3.org/2000/svg" width="63" height="63" viewBox="0 0 63 63"><defs><style>.a{fill:#F5F5F5;}.b{fill:none;}.c{fill:#B9B9B9;}</style></defs><g transform="translate(-0.351)"><circle class="a" cx="31.5" cy="31.5" r="31.5" transform="translate(0.351)"/><g transform="translate(13 12.5)"><path class="b" d="M0,0H37.5V37.5H0Z"/><path class="c" d="M4.563,18.625h9.375A1.567,1.567,0,0,0,15.5,17.063V4.563A1.567,1.567,0,0,0,13.938,3H4.563A1.567,1.567,0,0,0,3,4.563v12.5A1.567,1.567,0,0,0,4.563,18.625Zm0,12.5h9.375A1.567,1.567,0,0,0,15.5,29.563v-6.25a1.567,1.567,0,0,0-1.562-1.562H4.563A1.567,1.567,0,0,0,3,23.313v6.25A1.567,1.567,0,0,0,4.563,31.125Zm15.625,0h9.375a1.567,1.567,0,0,0,1.563-1.562v-12.5A1.567,1.567,0,0,0,29.563,15.5H20.188a1.567,1.567,0,0,0-1.562,1.563v12.5A1.567,1.567,0,0,0,20.188,31.125ZM18.625,4.563v6.25a1.567,1.567,0,0,0,1.563,1.563h9.375a1.567,1.567,0,0,0,1.563-1.562V4.563A1.567,1.567,0,0,0,29.563,3H20.188A1.567,1.567,0,0,0,18.625,4.563Z" transform="translate(1.688 1.688)"/></g></g></svg>