<svg xmlns="http://www.w3.org/2000/svg" width="63" height="63" viewBox="0 0 63 63"><defs><style>.a{fill:#f5f5f5;}.b{fill:#d5d5d5;}</style></defs><g transform="translate(-57 -9)"><g transform="translate(56.719 9)"><circle class="a" cx="31.5" cy="31.5" r="31.5" transform="translate(0.281)"/></g><path class="b" d="M0,20.475v2.157c0,1.783,4.344,3.233,9.7,3.233s9.7-1.45,9.7-3.233V20.475c-2.086,1.47-5.9,2.157-9.7,2.157S2.086,21.945,0,20.475ZM16.166,6.466c5.355,0,9.7-1.45,9.7-3.233S21.52,0,16.166,0s-9.7,1.45-9.7,3.233S10.811,6.466,16.166,6.466ZM0,15.175v2.607c0,1.783,4.344,3.233,9.7,3.233s9.7-1.45,9.7-3.233V15.175c-2.086,1.718-5.905,2.607-9.7,2.607S2.086,16.893,0,15.175Zm21.015.556c2.895-.561,4.85-1.6,4.85-2.8V10.775a12.405,12.405,0,0,1-4.85,1.743ZM9.7,8.083C4.344,8.083,0,9.891,0,12.124s4.344,4.041,9.7,4.041,9.7-1.809,9.7-4.041S15.054,8.083,9.7,8.083Zm11.078,2.844c3.031-.546,5.087-1.617,5.087-2.844V5.926c-1.793,1.268-4.875,1.95-8.118,2.112A5.657,5.657,0,0,1,20.778,10.927Z" transform="translate(76 27.5)"/></g></svg>