<svg xmlns="http://www.w3.org/2000/svg" width="63" height="63" viewBox="0 0 63 63"><defs><style>.a{fill:#b395ff;}.b{fill:#2e1963;}</style></defs><g transform="translate(-0.351)"><circle class="a" cx="31.5" cy="31.5" r="31.5" transform="translate(0.351)"/><g transform="translate(18.222 19.5)"><path class="b" d="M13.447,22.553V11.447a2.778,2.778,0,0,1,2.78-2.78H29.052V7.28A2.769,2.769,0,0,0,26.3,4.5H6.24A2.814,2.814,0,0,0,3.375,7.234V26.766A2.814,2.814,0,0,0,6.24,29.5H26.292a2.765,2.765,0,0,0,2.754-2.78V25.333H16.22A2.777,2.777,0,0,1,13.447,22.553Z" transform="translate(-3.375 -4.5)"/><path class="b" d="M17.227,12.995v9.115a1.045,1.045,0,0,0,1.042,1.042H30.443a1.045,1.045,0,0,0,1.042-1.042V12.995a1.045,1.045,0,0,0-1.042-1.042H18.268A1.045,1.045,0,0,0,17.227,12.995Zm5.02,6.634a2.084,2.084,0,1,1,1.947-1.947A2.085,2.085,0,0,1,22.246,19.629Z" transform="translate(-4.401 -5.052)"/></g></g></svg>